<svg width="255" height="80" viewBox="0 0 255 80" fill="none" xmlns="http://www.w3.org/2000/svg">
<path d="M116.472 57.1471V27.9674C116.472 27.3268 116.691 26.7877 117.128 26.3502C117.566 25.9127 118.089 25.694 118.698 25.694H123.105C123.714 25.694 124.23 25.9127 124.652 26.3502C125.089 26.7877 125.308 27.3268 125.308 27.9674V52.6705H145.722C146.331 52.6705 146.847 52.8893 147.269 53.3268C147.706 53.7643 147.925 54.2877 147.925 54.8971V57.1002C147.925 57.7096 147.706 58.233 147.269 58.6705C146.847 59.0924 146.331 59.3033 145.722 59.3033H118.698C118.089 59.3033 117.566 59.1002 117.128 58.694C116.691 58.2721 116.472 57.7565 116.472 57.1471ZM153.456 56.3502C151.05 54.069 149.847 50.7877 149.847 46.5065C149.847 42.2096 151.058 38.9127 153.48 36.6158C155.902 34.3033 159.261 33.1471 163.558 33.1471C167.855 33.1471 171.206 34.2721 173.613 36.5221C176.019 38.7565 177.222 41.9674 177.222 46.1549V47.4908C177.222 47.9127 177.081 48.2643 176.8 48.5455C176.534 48.8112 176.191 48.944 175.769 48.944H158.12C158.277 50.8658 158.823 52.2643 159.761 53.1393C160.714 54.0143 162.23 54.4518 164.308 54.4518C166.386 54.4518 167.808 53.983 168.573 53.0455C169.339 52.108 170.284 51.6315 171.409 51.6158H174.902C175.323 51.6158 175.667 51.7565 175.933 52.0377C176.214 52.3033 176.355 52.6471 176.355 53.069C176.355 57.5533 172.081 59.7877 163.534 59.7721C159.222 59.7721 155.863 58.6315 153.456 56.3502ZM158.073 43.9987H168.972C168.816 40.3112 167.003 38.4674 163.534 38.4674C160.081 38.4674 158.261 40.3112 158.073 43.9987ZM181.534 28.7174V27.9205C181.534 27.0924 181.769 26.4362 182.238 25.9518C182.722 25.4674 183.386 25.2252 184.23 25.2252H187.136C187.964 25.2252 188.62 25.4674 189.105 25.9518C189.589 26.4205 189.831 27.0768 189.831 27.9205V28.7174C189.831 29.5455 189.589 30.2018 189.105 30.6862C188.636 31.1705 187.98 31.4127 187.136 31.4127H184.23C183.402 31.4127 182.745 31.1705 182.261 30.6862C181.777 30.2018 181.534 29.5455 181.534 28.7174ZM181.628 57.8737V35.6315C181.628 35.2096 181.761 34.8658 182.027 34.6002C182.308 34.3346 182.652 34.2018 183.058 34.2018H188.308C188.73 34.2018 189.073 34.3424 189.339 34.6237C189.605 34.8893 189.738 35.2252 189.738 35.6315V57.8737C189.738 58.2955 189.597 58.6393 189.316 58.9049C189.05 59.1705 188.714 59.3033 188.308 59.3033H183.058C182.636 59.3033 182.292 59.1705 182.027 58.9049C181.761 58.6393 181.628 58.2955 181.628 57.8737ZM208.019 59.7721C203.644 59.7721 200.238 58.6471 197.8 56.3971C195.363 54.1471 194.144 50.8424 194.144 46.483C194.144 42.108 195.355 38.7955 197.777 36.5455C200.198 34.2799 203.566 33.1471 207.878 33.1471C212.206 33.1471 215.527 33.8346 217.839 35.2096C220.167 36.5846 221.331 38.6158 221.331 41.3033C221.331 41.7252 221.191 42.069 220.909 42.3346C220.644 42.6002 220.3 42.733 219.878 42.733H216.386C215.323 42.733 214.425 42.1627 213.691 41.0221C212.769 39.5533 211.136 38.819 208.792 38.819C206.464 38.819 204.831 39.4205 203.894 40.6237C202.972 41.8112 202.511 43.7565 202.511 46.4596C202.511 49.1627 202.988 51.1158 203.941 52.319C204.909 53.5221 206.581 54.1237 208.956 54.1237C211.347 54.1237 213.003 53.3893 213.925 51.9205C214.659 50.7643 215.558 50.1862 216.62 50.1862H220.113C220.534 50.1862 220.878 50.3268 221.144 50.608C221.425 50.8737 221.566 51.2096 221.566 51.6158C221.566 54.3033 220.402 56.3346 218.073 57.7096C215.761 59.0846 212.409 59.7721 208.019 59.7721ZM227.05 57.6158C224.988 56.1783 223.956 54.1471 223.956 51.5221C223.956 48.8971 224.988 46.8815 227.05 45.4752C229.128 44.069 231.8 43.3658 235.066 43.3658H242.823C242.823 41.5377 242.441 40.2643 241.675 39.5455C240.909 38.8268 239.566 38.4674 237.644 38.4674C235.738 38.4674 234.394 38.944 233.613 39.8971C232.847 40.8346 231.902 41.3033 230.777 41.3033H227.284C226.863 41.3033 226.511 41.1705 226.23 40.9049C225.964 40.6237 225.831 40.2799 225.831 39.8737C225.831 35.3893 230.089 33.1471 238.605 33.1471C242.323 33.1471 245.308 33.983 247.558 35.6549C249.808 37.3112 250.933 39.8815 250.933 43.3658V57.8737C250.933 58.2955 250.8 58.6393 250.534 58.9049C250.269 59.1705 249.925 59.3033 249.503 59.3033H244.98C244.558 59.3033 244.214 59.1705 243.948 58.9049C243.683 58.6237 243.55 58.2799 243.55 57.8737V57.1471C241.081 58.9127 238.23 59.7877 234.995 59.7721C231.777 59.7721 229.128 59.0533 227.05 57.6158ZM235.628 48.6862C234.534 48.6862 233.667 48.9518 233.027 49.483C232.402 50.0143 232.089 50.7018 232.089 51.5455C232.089 52.3893 232.417 53.0846 233.073 53.6315C233.73 54.1783 234.659 54.4518 235.863 54.4518C238.269 54.4518 240.589 53.7487 242.823 52.3424V48.6862H235.628Z" fill="#E73639"/>
<path d="M116.472 57.1471V27.9674C116.472 27.3268 116.691 26.7877 117.128 26.3502C117.566 25.9127 118.089 25.694 118.698 25.694H123.105C123.714 25.694 124.23 25.9127 124.652 26.3502C125.089 26.7877 125.308 27.3268 125.308 27.9674V52.6705H145.722C146.331 52.6705 146.847 52.8893 147.269 53.3268C147.706 53.7643 147.925 54.2877 147.925 54.8971V57.1002C147.925 57.7096 147.706 58.233 147.269 58.6705C146.847 59.0924 146.331 59.3033 145.722 59.3033H118.698C118.089 59.3033 117.566 59.1002 117.128 58.694C116.691 58.2721 116.472 57.7565 116.472 57.1471ZM153.456 56.3502C151.05 54.069 149.847 50.7877 149.847 46.5065C149.847 42.2096 151.058 38.9127 153.48 36.6158C155.902 34.3033 159.261 33.1471 163.558 33.1471C167.855 33.1471 171.206 34.2721 173.613 36.5221C176.019 38.7565 177.222 41.9674 177.222 46.1549V47.4908C177.222 47.9127 177.081 48.2643 176.8 48.5455C176.534 48.8112 176.191 48.944 175.769 48.944H158.12C158.277 50.8658 158.823 52.2643 159.761 53.1393C160.714 54.0143 162.23 54.4518 164.308 54.4518C166.386 54.4518 167.808 53.983 168.573 53.0455C169.339 52.108 170.284 51.6315 171.409 51.6158H174.902C175.323 51.6158 175.667 51.7565 175.933 52.0377C176.214 52.3033 176.355 52.6471 176.355 53.069C176.355 57.5533 172.081 59.7877 163.534 59.7721C159.222 59.7721 155.863 58.6315 153.456 56.3502ZM158.073 43.9987H168.972C168.816 40.3112 167.003 38.4674 163.534 38.4674C160.081 38.4674 158.261 40.3112 158.073 43.9987ZM181.534 28.7174V27.9205C181.534 27.0924 181.769 26.4362 182.238 25.9518C182.722 25.4674 183.386 25.2252 184.23 25.2252H187.136C187.964 25.2252 188.62 25.4674 189.105 25.9518C189.589 26.4205 189.831 27.0768 189.831 27.9205V28.7174C189.831 29.5455 189.589 30.2018 189.105 30.6862C188.636 31.1705 187.98 31.4127 187.136 31.4127H184.23C183.402 31.4127 182.745 31.1705 182.261 30.6862C181.777 30.2018 181.534 29.5455 181.534 28.7174ZM181.628 57.8737V35.6315C181.628 35.2096 181.761 34.8658 182.027 34.6002C182.308 34.3346 182.652 34.2018 183.058 34.2018H188.308C188.73 34.2018 189.073 34.3424 189.339 34.6237C189.605 34.8893 189.738 35.2252 189.738 35.6315V57.8737C189.738 58.2955 189.597 58.6393 189.316 58.9049C189.05 59.1705 188.714 59.3033 188.308 59.3033H183.058C182.636 59.3033 182.292 59.1705 182.027 58.9049C181.761 58.6393 181.628 58.2955 181.628 57.8737ZM208.019 59.7721C203.644 59.7721 200.238 58.6471 197.8 56.3971C195.363 54.1471 194.144 50.8424 194.144 46.483C194.144 42.108 195.355 38.7955 197.777 36.5455C200.198 34.2799 203.566 33.1471 207.878 33.1471C212.206 33.1471 215.527 33.8346 217.839 35.2096C220.167 36.5846 221.331 38.6158 221.331 41.3033C221.331 41.7252 221.191 42.069 220.909 42.3346C220.644 42.6002 220.3 42.733 219.878 42.733H216.386C215.323 42.733 214.425 42.1627 213.691 41.0221C212.769 39.5533 211.136 38.819 208.792 38.819C206.464 38.819 204.831 39.4205 203.894 40.6237C202.972 41.8112 202.511 43.7565 202.511 46.4596C202.511 49.1627 202.988 51.1158 203.941 52.319C204.909 53.5221 206.581 54.1237 208.956 54.1237C211.347 54.1237 213.003 53.3893 213.925 51.9205C214.659 50.7643 215.558 50.1862 216.62 50.1862H220.113C220.534 50.1862 220.878 50.3268 221.144 50.608C221.425 50.8737 221.566 51.2096 221.566 51.6158C221.566 54.3033 220.402 56.3346 218.073 57.7096C215.761 59.0846 212.409 59.7721 208.019 59.7721ZM227.05 57.6158C224.988 56.1783 223.956 54.1471 223.956 51.5221C223.956 48.8971 224.988 46.8815 227.05 45.4752C229.128 44.069 231.8 43.3658 235.066 43.3658H242.823C242.823 41.5377 242.441 40.2643 241.675 39.5455C240.909 38.8268 239.566 38.4674 237.644 38.4674C235.738 38.4674 234.394 38.944 233.613 39.8971C232.847 40.8346 231.902 41.3033 230.777 41.3033H227.284C226.863 41.3033 226.511 41.1705 226.23 40.9049C225.964 40.6237 225.831 40.2799 225.831 39.8737C225.831 35.3893 230.089 33.1471 238.605 33.1471C242.323 33.1471 245.308 33.983 247.558 35.6549C249.808 37.3112 250.933 39.8815 250.933 43.3658V57.8737C250.933 58.2955 250.8 58.6393 250.534 58.9049C250.269 59.1705 249.925 59.3033 249.503 59.3033H244.98C244.558 59.3033 244.214 59.1705 243.948 58.9049C243.683 58.6237 243.55 58.2799 243.55 57.8737V57.1471C241.081 58.9127 238.23 59.7877 234.995 59.7721C231.777 59.7721 229.128 59.0533 227.05 57.6158ZM235.628 48.6862C234.534 48.6862 233.667 48.9518 233.027 49.483C232.402 50.0143 232.089 50.7018 232.089 51.5455C232.089 52.3893 232.417 53.0846 233.073 53.6315C233.73 54.1783 234.659 54.4518 235.863 54.4518C238.269 54.4518 240.589 53.7487 242.823 52.3424V48.6862H235.628Z" fill="#5C9CBF" fill-opacity="0.3"/>
<path d="M86.5461 9.05936H66.1243C64.1515 9.05936 62.5075 7.37899 62.5075 5.44292C62.5075 2.52055 60.1329 0 57.0642 0H38.1767C35.2541 0 32.7333 2.37443 32.7333 5.44292C32.7333 7.41552 31.0528 9.05936 29.1166 9.05936H8.80439C3.90901 9.05936 0 12.968 0 17.863V70.2831C0 75.1781 3.90901 79.0868 8.80439 79.0868H86.3634C91.2588 79.0868 95.1678 75.1781 95.1678 70.2831V17.863C95.2044 12.968 91.2954 9.05936 86.5461 9.05936Z" fill="url(#paint0_linear_32_4)"/>
<path d="M95.3139 24.2922H0.146118V63.7078H95.3139V24.2922Z" fill="url(#paint1_linear_32_4)"/>
<path d="M64.4438 23.4521L28.0937 63.1233L47.7848 79.0503H86.3634C91.2588 79.0503 95.1678 75.1416 95.1678 70.2466V54.1735L64.4438 23.4521Z" fill="url(#paint2_linear_32_4)"/>
<path d="M47.5291 71.4886C62.4194 71.4886 74.4903 59.4187 74.4903 44.5297C74.4903 29.6407 62.4194 17.5708 47.5291 17.5708C32.6389 17.5708 20.5679 29.6407 20.5679 44.5297C20.5679 59.4187 32.6389 71.4886 47.5291 71.4886Z" fill="#E9F4FC"/>
<path d="M47.5291 66.0457C59.413 66.0457 69.0469 56.4127 69.0469 44.5297C69.0469 32.6468 59.413 23.0137 47.5291 23.0137C35.6451 23.0137 26.0113 32.6468 26.0113 44.5297C26.0113 56.4127 35.6451 66.0457 47.5291 66.0457Z" fill="#233C50"/>
<path d="M47.5291 58.5206C55.2567 58.5206 61.5211 52.2566 61.5211 44.5297C61.5211 36.8027 55.2567 30.5388 47.5291 30.5388C39.8015 30.5388 33.537 36.8027 33.537 44.5297C33.537 52.2566 39.8015 58.5206 47.5291 58.5206Z" fill="url(#paint3_linear_32_4)"/>
<path d="M47.5291 30.5753C55.0914 30.5753 61.0828 36.4566 61.0828 42.1918C61.0828 47.9269 55.0549 52.5297 47.5291 52.5297C40.0034 52.5297 33.9755 47.9269 33.9755 42.1918C33.9755 36.4566 40.0034 30.5753 47.5291 30.5753Z" fill="url(#paint4_linear_32_4)"/>
<path d="M88.7746 14.5023H75.7689V20.6392H88.7746V14.5023Z" fill="url(#paint5_linear_32_4)"/>
<path d="M22.3946 3.47034H8.40253V9.2055H22.3946V3.47034Z" fill="#C0D6E2"/>
<path d="M22.2484 3.47034H20.5679V9.2055H22.2484V3.47034Z" fill="url(#paint6_linear_32_4)"/>
<path d="M18.1933 3.47034H16.5128V9.2055H18.1933V3.47034Z" fill="url(#paint7_linear_32_4)"/>
<path d="M14.1381 3.47034H12.4576V9.2055H14.1381V3.47034Z" fill="url(#paint8_linear_32_4)"/>
<path d="M10.2292 3.47034H8.54865V9.2055H10.2292V3.47034Z" fill="url(#paint9_linear_32_4)"/>
<defs>
<linearGradient id="paint0_linear_32_4" x1="23.263" y1="50.5498" x2="72.9352" y2="36.5885" gradientUnits="userSpaceOnUse">
<stop stop-color="#E0F1F8"/>
<stop offset="0.2502" stop-color="#D4ECF4"/>
<stop offset="1" stop-color="#AFD8E5"/>
</linearGradient>
<linearGradient id="paint1_linear_32_4" x1="122.072" y1="14.9056" x2="32.469" y2="49.9708" gradientUnits="userSpaceOnUse">
<stop stop-color="#1771A4"/>
<stop offset="1" stop-color="#B9D6E3"/>
</linearGradient>
<linearGradient id="paint2_linear_32_4" x1="107.616" y1="76.4274" x2="19.3119" y2="33.2457" gradientUnits="userSpaceOnUse">
<stop stop-color="#A0D7E6" stop-opacity="0"/>
<stop offset="1" stop-color="#020203" stop-opacity="0.5"/>
</linearGradient>
<linearGradient id="paint3_linear_32_4" x1="108.605" y1="74.4051" x2="20.3008" y2="31.2234" gradientUnits="userSpaceOnUse">
<stop stop-color="#F18B6D"/>
<stop offset="1" stop-color="#C7596C"/>
</linearGradient>
<linearGradient id="paint4_linear_32_4" x1="46.3436" y1="37.3771" x2="41.5586" y2="18.235" gradientUnits="userSpaceOnUse">
<stop stop-color="#F18B6D"/>
<stop offset="0.5763" stop-color="#D96E6B"/>
<stop offset="1" stop-color="#C7596C"/>
</linearGradient>
<linearGradient id="paint5_linear_32_4" x1="91.8842" y1="15.1485" x2="73.2169" y2="19.8561" gradientUnits="userSpaceOnUse">
<stop stop-color="#1771A4"/>
<stop offset="1" stop-color="#B9D6E3"/>
</linearGradient>
<linearGradient id="paint6_linear_32_4" x1="20.5665" y1="6.32221" x2="22.2711" y2="6.32221" gradientUnits="userSpaceOnUse">
<stop stop-color="#E0F1F8"/>
<stop offset="0.2502" stop-color="#D4ECF4"/>
<stop offset="1" stop-color="#AFD8E5"/>
</linearGradient>
<linearGradient id="paint7_linear_32_4" x1="16.5355" y1="6.32221" x2="18.2397" y2="6.32221" gradientUnits="userSpaceOnUse">
<stop stop-color="#E0F1F8"/>
<stop offset="0.2502" stop-color="#D4ECF4"/>
<stop offset="1" stop-color="#AFD8E5"/>
</linearGradient>
<linearGradient id="paint8_linear_32_4" x1="12.504" y1="6.32221" x2="14.2087" y2="6.32221" gradientUnits="userSpaceOnUse">
<stop stop-color="#E0F1F8"/>
<stop offset="0.2502" stop-color="#D4ECF4"/>
<stop offset="1" stop-color="#AFD8E5"/>
</linearGradient>
<linearGradient id="paint9_linear_32_4" x1="8.47302" y1="6.32221" x2="10.1776" y2="6.32221" gradientUnits="userSpaceOnUse">
<stop stop-color="#E0F1F8"/>
<stop offset="0.2502" stop-color="#D4ECF4"/>
<stop offset="1" stop-color="#AFD8E5"/>
</linearGradient>
</defs>
</svg>
