<svg width="50" height="50" viewBox="0 0 50 51" fill="none" xmlns="http://www.w3.org/2000/svg">
    <circle cx="25" cy="25.5" r="25" fill="#B4ABAB"/>
    <path d="M37.0635 13.5952H12.9365C11.2778 13.5952 9.92062 14.9568 9.92062 16.621V34.7758C9.92062 36.44 11.2778 37.8016 12.9365 37.8016H37.0635C38.7222 37.8016 40.0794 36.44 40.0794 34.7758V16.621C40.0794 14.9568 38.7222 13.5952 37.0635 13.5952ZM36.4603 20.025L26.5984 26.2128C25.6182 26.8331 24.3817 26.8331 23.4016 26.2128L13.5397 20.025C13.3885 19.9399 13.2561 19.8248 13.1505 19.6868C13.0449 19.5488 12.9683 19.3908 12.9253 19.2222C12.8823 19.0537 12.8739 18.8782 12.9005 18.7062C12.9272 18.5343 12.9883 18.3696 13.0802 18.2221C13.1721 18.0746 13.2929 17.9473 13.4352 17.848C13.5776 17.7486 13.7385 17.6793 13.9084 17.6442C14.0782 17.6091 14.2534 17.6089 14.4233 17.6436C14.5932 17.6784 14.7543 17.7474 14.8968 17.8465L25 24.1855L35.1032 17.8465C35.2457 17.7474 35.4068 17.6784 35.5767 17.6436C35.7466 17.6089 35.9218 17.6091 36.0916 17.6442C36.2615 17.6793 36.4224 17.7486 36.5648 17.848C36.7071 17.9473 36.8279 18.0746 36.9198 18.2221C37.0117 18.3696 37.0728 18.5343 37.0994 18.7062C37.1261 18.8782 37.1176 19.0537 37.0747 19.2222C37.0317 19.3908 36.9551 19.5488 36.8495 19.6868C36.7439 19.8248 36.6115 19.9399 36.4603 20.025Z"
          fill="white"/>
</svg>
