<svg width="40" height="40" viewBox="0 0 40 40" fill="none" xmlns="http://www.w3.org/2000/svg">
<path d="M20 40C17.2333 40 14.6333 39.4747 12.2 38.424C9.76667 37.3733 7.65 35.9487 5.85 34.15C4.05 32.35 2.62533 30.2333 1.576 27.8C0.526667 25.3667 0.00133333 22.7667 0 20C0 17.2333 0.525333 14.6333 1.576 12.2C2.62667 9.76667 4.05133 7.65 5.85 5.85C7.65 4.05 9.76667 2.62533 12.2 1.576C14.6333 0.526667 17.2333 0.00133333 20 0C22.7667 0 25.3667 0.525333 27.8 1.576C30.2333 2.62667 32.35 4.05133 34.15 5.85C35.95 7.65 37.3753 9.76667 38.426 12.2C39.4767 14.6333 40.0013 17.2333 40 20C40 22.7667 39.4747 25.3667 38.424 27.8C37.3733 30.2333 35.9487 32.35 34.15 34.15C32.35 35.95 30.2333 37.3753 27.8 38.426C25.3667 39.4767 22.7667 40.0013 20 40ZM20.4 22L18.6 23.8C18.2333 24.1667 18.05 24.6333 18.05 25.2C18.05 25.7667 18.2333 26.2333 18.6 26.6C18.9667 26.9667 19.4333 27.15 20 27.15C20.5667 27.15 21.0333 26.9667 21.4 26.6L26.6 21.4C27 21 27.2 20.5333 27.2 20C27.2 19.4667 27 19 26.6 18.6L21.4 13.4C21.0333 13.0333 20.5667 12.85 20 12.85C19.4333 12.85 18.9667 13.0333 18.6 13.4C18.2333 13.7667 18.05 14.2333 18.05 14.8C18.05 15.3667 18.2333 15.8333 18.6 16.2L20.4 18H14C13.4333 18 12.958 18.192 12.574 18.576C12.19 18.96 11.9987 19.4347 12 20C12 20.5667 12.192 21.042 12.576 21.426C12.96 21.81 13.4347 22.0013 14 22H20.4Z" fill="black"/>
</svg>
